<?xml version="1.0" encoding="UTF-8" standalone="no"?>
<!-- Created with Inkscape (http://www.inkscape.org/) -->

<svg
   version="1.1"
   id="svg2"
   width="547.20001"
   height="655.85333"
   viewBox="0 0 547.20001 655.85333"
   sodipodi:docname="hv_full.eps"
   xmlns:inkscape="http://www.inkscape.org/namespaces/inkscape"
   xmlns:sodipodi="http://sodipodi.sourceforge.net/DTD/sodipodi-0.dtd"
   xmlns="http://www.w3.org/2000/svg"
   xmlns:svg="http://www.w3.org/2000/svg">
  <defs
     id="defs6" />
  <sodipodi:namedview
     id="namedview4"
     pagecolor="#ffffff"
     bordercolor="#000000"
     borderopacity="0.25"
     inkscape:showpageshadow="2"
     inkscape:pageopacity="0.0"
     inkscape:pagecheckerboard="0"
     inkscape:deskcolor="#d1d1d1" />
  <g
     id="g8"
     inkscape:groupmode="layer"
     inkscape:label="ink_ext_XXXXXX"
     transform="matrix(1.3333333,0,0,-1.3333333,0,655.85333)">
    <g
       id="g10"
       transform="scale(0.1)">
      <path
         d="m 1588.49,4316.95 249.28,598.16 -609.76,-299.07 -609.748,299.07 249.269,-598.16 h 720.959"
         style="fill:#316bbd;fill-opacity:1;fill-rule:nonzero;stroke:none"
         id="path12" />
      <path
         d="m 1054.51,3561.77 57.85,288.06 c 76.05,0.71 123.36,-46.16 109.33,-116.37 -14.05,-70.3 -84.96,-140.86 -167.18,-171.69 z m -79.623,-15.87 c -76.129,-0.76 -123.489,46.12 -109.449,116.37 14.054,70.34 85.031,140.93 167.312,171.74 z M 4054.74,3347.77 c -134.5,668.72 -525.77,1219.84 -1050.1,1571.15 L 2777.31,3786.95 c 261.73,-233.42 452.84,-550.45 527.5,-920.69 C 3471.86,2037.79 2998.08,1229.04 2224.83,953.09 l 252.44,1257.01 c 64.09,319.2 -60.17,478.46 -354.97,419.26 l -909.34,-182.62 c 0,0 105.3,524.33 245.78,1223.85 64.11,319.24 -60.14,478.52 -354.96,419.31 C 663.801,4001.55 291.445,3581.76 141.855,3256.46 L 675.5,3363.62 0,0 l 751.922,151 355.118,1768.32 516.91,102.9 c 46.58,9.27 87.61,-31.82 78.26,-78.39 L 1366.97,274.52 1987.58,399.16 c 44.79,8.969 88.68,18.371 131.67,28.192 v 0 C 3458.18,698.031 4324.73,2005.53 4054.74,3347.77"
         style="fill:#316bbd;fill-opacity:1;fill-rule:nonzero;stroke:none"
         id="path14" />
    </g>
  </g>
</svg>
